<svg width="24" height="15" viewBox="0 0 24 15" fill="none" xmlns="http://www.w3.org/2000/svg">
  <path d="M21.6568 12.7918L19.3155 14.4133V12.0947C19.3155 12.0947 16.6675 12.0947 16.1876 12.0947C11.7373 12.0947 7.60545 4.20594 4.26547 4.20594H0V2.33377H4.26576C9.45272 2.33377 12.5829 10.2466 16.1879 10.2466C16.6916 10.2466 19.3158 10.2466 19.3158 10.2466V7.92797L21.657 9.54945L23.9997 11.1706L21.6568 12.7918Z" fill="#323232"/>
  <path d="M12.1769 6.0269C12.2842 6.14022 12.3912 6.25412 12.4982 6.36745C13.7414 5.12143 14.9368 4.16674 16.1882 4.16674C16.6919 4.16674 19.3161 4.16674 19.3161 4.16674V6.48564L21.6573 4.86416L24 3.24268L21.6573 1.6212L19.3161 0V2.31861C19.3161 2.31861 16.6681 2.31861 16.1882 2.31861C14.4574 2.31861 12.7753 3.51254 11.1689 4.97119C11.5126 5.32347 11.8486 5.67833 12.1769 6.0269Z" fill="#323232"/>
  <path d="M8.56157 8.55728C8.38042 8.37813 8.19641 8.19641 8.01125 8.01526C6.68081 9.25641 5.42506 10.2077 4.26576 10.2077H0V12.0795H4.26576C6.26299 12.0795 7.9543 10.9054 9.48649 9.46246C9.17313 9.15968 8.86434 8.85605 8.56157 8.55728Z" fill="#323232"/>
</svg>  