<svg width="9" height="17" viewBox="0 0 9 17" fill="none" xmlns="http://www.w3.org/2000/svg">
  <path d="M8.33333 7.69166V1.5C8.33333 1.04166 7.95833 0.666664 7.5 0.666664H0.833333C0.375 0.666664 0 1.04166 0 1.5V7.69166C0 7.98333 0.15 8.25833 0.408333 8.40833L3.89167 10.5L3.06667 12.45L1.21667 12.6083C0.833333 12.6417 0.683333 13.1 0.966667 13.3417L2.375 14.5583L1.95 16.375C1.86667 16.7333 2.25833 17.0167 2.575 16.825L4.16667 15.8583L5.75833 16.8167C6.075 17.0083 6.46667 16.725 6.38333 16.3667L5.95833 14.55L7.36667 13.3333C7.64167 13.0917 7.5 12.6333 7.125 12.6L5.275 12.4417L4.45 10.4917L7.93333 8.4C8.18333 8.25833 8.33333 7.99166 8.33333 7.69166ZM5 9.19166L4.16667 9.69166L3.33333 9.19166V1.5H5V9.19166Z" fill="#323232"/>
</svg>